<?xml version="1.0" standalone="no"?>
<!DOCTYPE svg PUBLIC "-//W3C//DTD SVG 20010904//EN"
 "http://www.w3.org/TR/2001/REC-SVG-20010904/DTD/svg10.dtd">
<svg version="1.0" xmlns="http://www.w3.org/2000/svg"
 width="325.000000pt" height="325.000000pt" viewBox="0 0 325.000000 325.000000"
 preserveAspectRatio="xMidYMid meet">
<metadata>
Created by potrace 1.14, written by Peter Selinger 2001-2017
</metadata>
<g transform="translate(0.000000,325.000000) scale(0.100000,-0.100000)"
fill="#000000" stroke="none">
<path d="M1625 3202 c-33 -21 -121 -78 -195 -127 -74 -49 -179 -117 -234 -152
-57 -36 -93 -65 -85 -67 8 -3 82 -19 164 -37 83 -17 213 -44 290 -60 281 -59
330 -69 346 -69 11 0 28 30 54 93 21 50 49 116 63 145 15 33 21 56 15 60 -30
20 -271 192 -308 220 -24 17 -45 32 -47 32 -2 0 -30 -17 -63 -38z"/>
<path d="M2026 2802 c-25 -59 -46 -112 -46 -118 0 -6 73 -15 188 -22 259 -17
256 -17 270 13 7 14 12 28 12 30 0 6 -357 205 -369 205 -5 0 -29 -49 -55 -108z"/>
<path d="M1113 2791 c23 -28 242 -276 248 -281 7 -6 136 -151 249 -280 122
-140 195 -217 188 -200 -41 97 -86 207 -174 425 -58 143 -108 263 -112 267 -4
4 -79 21 -167 38 -88 17 -179 35 -203 39 -39 8 -42 7 -29 -8z"/>
<path d="M1050 2554 c0 -174 3 -234 13 -241 18 -15 690 -333 694 -329 2 2 -22
32 -53 67 -118 133 -190 214 -204 229 -9 9 -79 88 -156 175 -132 150 -184 209
-261 294 l-32 36 -1 -231z"/>
<path d="M765 2329 c-37 -28 -65 -52 -63 -54 2 -1 48 -26 103 -55 55 -29 119
-64 143 -77 24 -14 45 -23 47 -21 1 1 6 39 9 83 l7 80 -90 47 -90 47 -66 -50z"/>
<path d="M1046 2142 c-4 -64 -14 -211 -22 -327 -23 -333 -44 -686 -44 -735 l0
-45 425 425 c233 233 421 428 417 431 -7 7 -604 293 -718 345 l-52 23 -6 -117z"/>
<path d="M594 2207 c-22 -18 -54 -41 -70 -53 l-29 -21 49 -79 c27 -43 58 -95
69 -114 10 -19 21 -38 23 -41 2 -4 45 6 96 22 51 16 130 41 176 55 81 25 82
26 82 58 0 33 -3 35 -132 101 -73 38 -146 77 -163 87 -40 24 -53 22 -101 -15z"/>
<path d="M810 1900 c-80 -27 -145 -50 -145 -52 0 -10 77 -128 83 -127 4 0 59
28 122 62 l115 62 3 53 c3 45 1 52 -15 51 -10 0 -83 -22 -163 -49z"/>
<path d="M1395 1390 l-400 -400 190 0 c105 0 206 3 226 6 l35 6 177 390 c98
215 176 392 174 394 -1 2 -183 -177 -402 -396z"/>
<path d="M1150 809 c80 -77 175 -167 213 -200 l67 -61 0 201 0 201 -212 0
-213 -1 145 -140z"/>
<path d="M1030 823 c10 -26 51 -133 91 -238 39 -104 73 -191 74 -193 3 -3 208
79 218 87 7 7 -312 321 -377 372 l-25 20 19 -48z"/>
<path d="M1332 392 c-51 -19 -91 -39 -90 -43 3 -9 332 -238 336 -235 1 2 -15
43 -36 92 -22 49 -52 119 -68 157 -16 37 -33 67 -39 66 -5 0 -52 -17 -103 -37z"/>
<path d="M1533 340 c7 -17 58 -139 80 -190 17 -37 18 -36 36 35 l11 40 -66 65
c-37 36 -64 58 -61 50z"/>
<path d="M2151 262 c-22 -28 -41 -54 -41 -58 0 -5 9 -20 19 -33 l18 -24 27 78
c14 43 24 80 22 82 -2 2 -22 -18 -45 -45z"/>
<path d="M1694 183 c-3 -15 -10 -43 -15 -62 -5 -19 -7 -36 -5 -38 1 -2 65 20
142 49 157 59 157 60 -23 72 l-92 7 -7 -28z"/>
<path d="M2015 165 c-16 -8 -70 -31 -120 -50 l-90 -36 60 5 c33 3 102 9 153
12 50 4 92 11 92 16 0 17 -41 68 -53 67 -7 0 -25 -7 -42 -14z"/>
</g>
</svg>
